<svg xmlns="http://www.w3.org/2000/svg" viewBox="0 0 1200 600" role="img" aria-label="Ferme burkinabè au lever du soleil" preserveAspectRatio="xMidYMid slice">
  <defs>
    <linearGradient id="sky" x1="0" y1="0" x2="0" y2="1">
      <stop offset="0%" stop-color="#FFECB3"/>
      <stop offset="55%" stop-color="#FFD54F"/>
      <stop offset="100%" stop-color="#FFB300"/>
    </linearGradient>
    <linearGradient id="ground" x1="0" y1="0" x2="0" y2="1">
      <stop offset="0%" stop-color="#C8E6C9"/>
      <stop offset="100%" stop-color="#2E7D32"/>
    </linearGradient>
    <radialGradient id="sun" cx="0.5" cy="0.5" r="0.5">
      <stop offset="0%" stop-color="#FFF8E1"/>
      <stop offset="100%" stop-color="#FFB300" stop-opacity="0"/>
    </radialGradient>
  </defs>

  <rect width="1200" height="420" fill="url(#sky)"/>
  <circle cx="900" cy="220" r="220" fill="url(#sun)"/>
  <circle cx="900" cy="220" r="80" fill="#FFF8E1"/>

  <path d="M0 340 Q300 280 600 320 T1200 310 L1200 420 L0 420 Z" fill="#FCD116" opacity="0.55"/>

  <rect x="0" y="420" width="1200" height="180" fill="url(#ground)"/>

  <g transform="translate(150 340)">
    <rect x="0" y="0" width="160" height="100" fill="#8D6E63"/>
    <polygon points="0,0 80,-50 160,0" fill="#CE1126"/>
    <rect x="60" y="40" width="40" height="60" fill="#5D4037"/>
    <rect x="20" y="20" width="22" height="22" fill="#FFECB3"/>
    <rect x="120" y="20" width="22" height="22" fill="#FFECB3"/>
  </g>

  <g fill="#14532D" opacity="0.75">
    <circle cx="500" cy="370" r="22"/>
    <circle cx="490" cy="355" r="22"/>
    <circle cx="510" cy="360" r="20"/>
    <rect x="497" y="385" width="4" height="18"/>
    <circle cx="620" cy="360" r="28"/>
    <circle cx="605" cy="345" r="26"/>
    <circle cx="635" cy="350" r="24"/>
    <rect x="617" y="385" width="4" height="22"/>
  </g>

  <g transform="translate(760 440)">
    <ellipse cx="0" cy="0" rx="30" ry="22" fill="#FFFFFF"/>
    <circle cx="20" cy="-14" r="13" fill="#FFFFFF"/>
    <circle cx="24" cy="-16" r="2" fill="#0F172A"/>
    <polygon points="32,-14 42,-18 36,-10" fill="#FF8F00"/>
    <polygon points="24,-28 26,-22 22,-22" fill="#CE1126"/>
  </g>
  <g transform="translate(820 455)">
    <ellipse cx="0" cy="0" rx="24" ry="18" fill="#FFECB3"/>
    <circle cx="16" cy="-10" r="10" fill="#FFECB3"/>
    <circle cx="19" cy="-12" r="1.5" fill="#0F172A"/>
    <polygon points="26,-10 34,-13 29,-6" fill="#FF8F00"/>
  </g>
  <g transform="translate(690 460)">
    <ellipse cx="0" cy="0" rx="20" ry="15" fill="#FFFFFF"/>
    <circle cx="13" cy="-8" r="9" fill="#FFFFFF"/>
    <circle cx="16" cy="-10" r="1.5" fill="#0F172A"/>
    <polygon points="22,-8 29,-11 25,-4" fill="#FF8F00"/>
  </g>

  <g fill="#14532D">
    <rect x="0" y="570" width="1200" height="2" opacity="0.3"/>
  </g>
</svg>
