<svg xmlns="http://www.w3.org/2000/svg" viewBox="0 0 48 48" role="img" aria-label="Poulets BF">
  <defs>
    <linearGradient id="pbf-g" x1="0" y1="0" x2="1" y2="1">
      <stop offset="0%" stop-color="#2E7D32"/>
      <stop offset="100%" stop-color="#FF8F00"/>
    </linearGradient>
  </defs>
  <circle cx="24" cy="24" r="22" fill="url(#pbf-g)"/>
  <path d="M15 30c0-6 4-10 9-10 3 0 5 1 7 3l3-1-1 4c1 2 1 5 0 7-2 3-6 5-10 5-5 0-8-3-8-8z" fill="#FFFFFF"/>
  <circle cx="28" cy="22" r="1.5" fill="#0F172A"/>
  <path d="M33 22l4-2-1 3z" fill="#CE1126"/>
  <path d="M18 35l-2 4h3l1-3zM22 36l-1 4h3l1-3z" fill="#FCD116"/>
</svg>
